# xmcd CD database file
#
# Track frame offsets:
#	150
#	8808
#	18444
#	27855
#	36442
#	48172
#	58956
#	69764
#	84034
#	92513
#	110104
#	121306
#
# Disc length: 1759 seconds
#
# Revision: 1
# Processed by: cddbd v1.5.2PL0 Copyright (c) Steve Scherf et al.
# Submitted via: Feurio! 1.68 - http://www.feurio.com
#
DISCID=8e06dd0c
DTITLE=Elvis Presley  - The Golden Hits CD3 - The Christmas Album
DYEAR=1900
DGENRE=
TTITLE0=Here Comes Santa Claus
TTITLE1=Blue Christmas
TTITLE2=I Believe
TTITLE3=I´ll Be Home For Christmas
TTITLE4=O Little Town Of Bethlehem
TTITLE5=Santa Claus Is Back In Town
TTITLE6=Silent Night
TTITLE7=(There´ll Be) Peace in the Valley
TTITLE8=Santa Bring My Baby Back
TTITLE9=It Is No Secret (What God Can Do)
TTITLE10=Take My Hand, Precious Lord
TTITLE11=White Christmas
EXTD=
EXTT0=
EXTT1=
EXTT2=
EXTT3=
EXTT4=
EXTT5=
EXTT6=
EXTT7=
EXTT8=
EXTT9=
EXTT10=
EXTT11=
PLAYORDER=
